<?xml version="1.0" encoding="UTF-8"?>
<svg xmlns="http://www.w3.org/2000/svg" viewBox="0 0 1024 1024" role="img" aria-labelledby="title desc">
  <title id="title">Victoria en Cristo</title>
  <desc id="desc">Una Biblia abierta forma una V y conduce hacia una cruz.</desc>
  <rect width="1024" height="1024" rx="216" fill="#061A3D"/>
  <g fill="none" stroke="#F2C94C" stroke-width="18" stroke-linecap="round" opacity=".24">
    <path d="M512 254V92"/>
    <path d="M414 270L354 112"/>
    <path d="M610 270L670 112"/>
    <path d="M338 322L218 196"/>
    <path d="M686 322L806 196"/>
  </g>
  <g fill="#F8F3E8">
    <path d="M148 354Q270 309 414 346L500 827Q505 856 481 836L181 447Q157 415 148 354Z"/>
    <path d="M876 354Q754 309 610 346L524 827Q519 856 543 836L843 447Q867 415 876 354Z"/>
  </g>
  <g fill="none" stroke="#A8B9D2" stroke-width="24" stroke-linecap="round" opacity=".82">
    <path d="M257 411L385 398"/>
    <path d="M285 482L405 469"/>
    <path d="M767 411L639 398"/>
    <path d="M739 482L619 469"/>
  </g>
  <g fill="none" stroke="#F2C94C" stroke-width="64" stroke-linecap="round">
    <path d="M512 182V514"/>
    <path d="M398 294H626"/>
  </g>
</svg>
